<?xml version="1.0" standalone="no"?>
<!DOCTYPE svg PUBLIC "-//W3C//DTD SVG 20010904//EN"
 "http://www.w3.org/TR/2001/REC-SVG-20010904/DTD/svg10.dtd">
<svg version="1.0" xmlns="http://www.w3.org/2000/svg"
 width="1352.000000pt" height="1348.000000pt" viewBox="0 0 1352.000000 1348.000000"
 preserveAspectRatio="xMidYMid meet">

<g transform="translate(0.000000,1348.000000) scale(0.100000,-0.100000)"
fill="#000000" stroke="none">
<path d="M0 6740 l0 -6740 6760 0 6760 0 0 6740 0 6740 -6760 0 -6760 0 0
-6740z m5520 1601 c0 -77 -1700 -2102 -2318 -2759 -117 -124 -162 -165 -162
-144 0 70 1335 1675 2120 2547 161 179 340 365 352 365 4 0 8 -4 8 -9z m-3769
-541 c87 -22 114 -20 124 11 4 10 14 19 24 19 15 0 19 -12 24 -82 4 -46 7
-120 7 -165 0 -76 -2 -83 -20 -83 -11 0 -20 6 -20 13 0 27 -53 124 -88 160
-64 67 -103 82 -212 82 -83 0 -102 -3 -145 -26 -107 -55 -180 -190 -192 -354
-14 -203 62 -366 204 -437 41 -19 63 -23 148 -23 91 0 106 3 166 31 37 18 85
49 108 70 39 35 43 36 59 21 15 -16 14 -19 -13 -48 -86 -92 -224 -149 -359
-149 -148 0 -258 43 -353 138 -88 89 -133 209 -133 355 0 137 43 246 136 346
127 137 309 178 535 121z m876 -17 c123 -41 167 -98 167 -219 1 -93 -28 -140
-110 -180 l-56 -27 49 -19 c58 -21 127 -77 149 -121 21 -40 21 -141 0 -192
-34 -80 -111 -134 -221 -154 -33 -6 -175 -11 -322 -11 -221 0 -263 2 -263 14
0 10 19 19 55 26 38 8 59 18 68 33 13 24 24 649 12 745 -8 66 -28 87 -89 96
-31 5 -46 12 -46 22 0 14 33 15 273 12 241 -4 279 -7 334 -25z m783 13 c0 -8
-16 -16 -42 -20 -49 -8 -68 -21 -68 -47 0 -17 169 -279 180 -278 3 0 47 52 99
115 131 162 141 197 57 209 -29 5 -46 12 -46 21 0 11 32 14 175 14 149 0 175
-2 175 -15 0 -8 -6 -15 -12 -15 -35 0 -93 -25 -125 -53 -20 -18 -92 -102 -159
-186 l-123 -155 66 -95 c265 -384 256 -373 324 -391 23 -6 39 -17 39 -25 0
-13 -33 -15 -215 -15 -178 0 -215 2 -215 14 0 9 16 17 43 21 49 8 67 20 67 46
0 9 -46 86 -101 171 l-102 152 -34 -39 c-19 -22 -72 -89 -119 -148 -108 -139
-109 -163 -11 -181 23 -4 37 -13 37 -21 0 -13 -28 -15 -170 -15 -142 0 -170 2
-170 15 0 8 16 19 38 24 22 6 54 28 78 53 81 85 306 370 301 382 -10 25 -222
329 -260 372 -25 29 -55 50 -88 61 -27 10 -49 23 -49 30 0 10 48 13 215 13
176 0 215 -3 215 -14z m2516 -1181 c246 -559 305 -691 319 -708 7 -11 31 -25
52 -32 25 -9 38 -19 38 -32 0 -17 -12 -18 -200 -18 -181 0 -200 2 -203 17 -2
12 5 19 25 23 72 15 78 19 77 55 0 19 -19 80 -41 135 l-40 100 -203 0 -202 0
-39 -95 c-39 -97 -49 -163 -27 -176 7 -4 28 -10 48 -14 27 -4 36 -11 38 -28
l3 -23 -158 3 c-137 3 -158 5 -161 20 -2 11 8 20 31 27 42 14 67 41 100 106
21 44 354 820 378 883 6 16 16 22 30 20 16 -2 43 -54 135 -263z m6223 238 c83
-27 109 -26 118 7 6 22 53 29 53 8 0 -7 7 -74 15 -148 19 -179 19 -180 -5
-180 -11 0 -23 8 -26 18 -3 9 -21 50 -40 89 -38 78 -83 120 -165 148 -155 55
-282 -68 -205 -199 27 -46 50 -63 283 -211 112 -70 179 -141 199 -212 18 -60
14 -131 -11 -189 -20 -48 -83 -112 -135 -139 -98 -49 -204 -52 -336 -9 -82 26
-109 25 -119 -7 -5 -14 -14 -19 -28 -17 -20 3 -23 15 -44 153 -27 190 -27 185
-3 185 14 0 29 -19 55 -70 45 -90 97 -147 160 -176 99 -46 184 -40 250 17 43
38 60 91 50 156 -6 41 -15 56 -59 98 -29 28 -110 86 -181 130 -158 98 -216
152 -240 224 -44 133 31 289 160 335 66 24 165 20 254 -11z m-7081 -8 c77 -18
112 -36 163 -82 61 -55 83 -105 83 -188 0 -197 -155 -305 -441 -305 l-84 0 3
-180 c3 -199 6 -207 69 -216 68 -9 80 -14 77 -32 -3 -15 -23 -17 -223 -17
-216 0 -220 0 -223 21 -3 18 3 22 44 27 83 9 79 -16 82 454 2 293 -1 425 -9
444 -11 28 -52 49 -95 49 -17 0 -24 6 -24 20 0 19 7 20 258 20 192 0 273 -4
320 -15z m1923 5 c81 -15 178 -68 211 -115 64 -92 60 -230 -10 -307 -39 -43
-83 -69 -152 -89 -25 -7 -49 -15 -53 -19 -8 -7 302 -394 337 -420 11 -8 36
-20 56 -26 24 -7 36 -17 38 -32 3 -22 1 -22 -120 -22 -68 0 -128 4 -133 8 -6
4 -96 112 -199 240 -167 205 -192 232 -217 232 l-29 0 0 -189 c0 -218 2 -225
83 -240 55 -10 62 -14 54 -36 -6 -13 -37 -15 -222 -15 -188 0 -216 2 -222 16
-7 20 8 30 57 38 20 3 45 15 56 27 18 20 19 43 22 403 2 209 1 400 -3 422 -8
57 -24 74 -81 89 -31 8 -50 18 -52 29 -3 14 21 16 261 16 145 0 289 -4 318
-10z m1313 -42 c3 -29 6 -90 6 -135 0 -81 -1 -83 -24 -83 -20 0 -26 7 -36 48
-26 112 -66 139 -215 149 l-95 6 0 -420 c0 -278 4 -431 11 -451 11 -32 42 -47
109 -54 17 -2 26 -10 28 -25 l3 -23 -231 0 -231 0 3 22 c2 19 11 24 53 30 95
13 97 27 93 553 l-3 360 -87 -1 c-145 -3 -186 -27 -218 -130 -13 -45 -23 -60
-39 -62 -21 -3 -21 0 -21 132 l0 136 444 0 443 0 7 -52z m658 -311 l293 -363
3 265 c3 363 -6 402 -102 416 -36 6 -46 11 -46 26 0 18 10 19 189 19 181 0
189 -1 184 -19 -3 -13 -17 -21 -41 -26 -104 -19 -102 -8 -102 -550 l0 -456
-22 3 c-16 2 -117 120 -344 402 -177 219 -329 406 -339 415 -15 15 -16 -6 -12
-324 2 -245 7 -349 16 -373 15 -37 55 -62 101 -62 27 0 31 -3 28 -22 -3 -23
-4 -23 -188 -23 -167 0 -185 2 -188 17 -2 12 5 19 25 24 71 15 94 27 108 54
13 24 15 95 15 428 l0 398 -35 34 c-21 20 -48 35 -72 39 -25 4 -39 12 -41 24
-3 15 9 17 137 17 l140 0 293 -363z m1438 248 c0 -113 0 -115 -23 -115 -18 0
-26 10 -42 57 -33 94 -42 97 -270 101 l-193 4 -7 -64 c-3 -35 -5 -121 -3 -193
l3 -130 157 0 c186 0 203 7 228 93 12 43 19 52 37 52 l23 0 0 -186 c0 -182 0
-185 -21 -182 -15 2 -25 18 -39 56 -29 88 -27 87 -221 90 l-171 3 4 -205 c1
-112 7 -208 11 -213 13 -13 163 -19 268 -12 147 11 200 41 260 147 24 40 36
52 55 52 13 0 24 -3 24 -7 0 -20 -70 -257 -78 -265 -4 -4 -195 -7 -423 -6
-405 3 -414 3 -414 23 0 15 9 21 45 27 24 4 53 17 65 28 19 20 20 31 20 428 0
224 -4 420 -8 435 -8 30 -56 57 -102 57 -18 0 -25 5 -25 20 0 20 7 20 420 20
l420 0 0 -115z m731 105 c78 -15 172 -63 205 -107 56 -73 65 -197 21 -278 -29
-52 -94 -100 -165 -121 -31 -10 -61 -21 -65 -24 -9 -8 301 -395 339 -424 14
-10 40 -22 57 -25 23 -5 33 -13 35 -29 3 -22 2 -22 -122 -22 -93 0 -128 4
-138 14 -8 7 -97 116 -198 240 -173 213 -186 227 -215 224 l-30 -3 -3 -125
c-4 -156 5 -244 26 -270 10 -12 36 -24 62 -28 36 -6 46 -12 48 -30 l3 -22
-216 0 c-188 0 -216 2 -222 16 -7 20 8 30 58 38 75 12 74 7 74 461 0 220 -4
413 -8 428 -8 30 -56 57 -102 57 -18 0 -25 5 -25 20 0 19 7 20 264 20 145 0
288 -5 317 -10z"/>
<path d="M2317 7743 c-4 -3 -7 -85 -7 -181 l0 -174 108 4 c122 4 172 22 203
71 65 108 4 249 -119 276 -58 12 -175 15 -185 4z"/>
<path d="M2310 7133 c0 -180 1 -193 19 -203 29 -15 150 -12 208 5 96 29 135
80 136 180 1 90 -23 132 -97 169 -49 25 -74 30 -162 35 l-104 6 0 -192z"/>
<path d="M5663 6433 c-45 -108 -81 -199 -79 -200 2 -2 78 -2 169 -1 l166 3
-82 197 c-45 109 -84 198 -87 198 -3 0 -42 -89 -87 -197z"/>
<path d="M4794 6777 c-2 -7 -3 -107 -2 -222 l3 -210 89 2 c152 4 221 52 247
173 25 119 -32 222 -142 254 -65 20 -188 21 -195 3z"/>
<path d="M6728 6784 c-5 -4 -8 -99 -8 -212 l0 -205 79 7 c111 9 171 29 213 72
63 63 74 182 25 256 -39 57 -96 81 -206 86 -53 2 -99 1 -103 -4z"/>
<path d="M10860 6764 c-6 -14 -10 -109 -10 -211 l0 -186 83 7 c99 7 144 19
188 49 71 48 101 132 78 222 -24 97 -110 145 -256 145 -70 0 -74 -1 -83 -26z"/>
</g>
</svg>
