<svg width="200" height="200" viewBox="0 0 200 200" fill="none" xmlns="http://www.w3.org/2000/svg">
<path d="M11.4541 169.454C6.18198 174.726 6.18198 183.274 11.4541 188.546C16.7261 193.818 25.2739 193.818 30.5459 188.546L11.4541 169.454ZM192.5 21C192.5 13.5442 186.456 7.49999 179 7.49999L57.5 7.49999C50.0442 7.49999 44 13.5442 44 21C44 28.4558 50.0442 34.5 57.5 34.5H165.5V142.5C165.5 149.956 171.544 156 179 156C186.456 156 192.5 149.956 192.5 142.5L192.5 21ZM30.5459 188.546L188.546 30.5459L169.454 11.4541L11.4541 169.454L30.5459 188.546Z" fill="black"/>
</svg>
